# xmcd
#
# Track frame offsets: 
#        150
#        13227
#        26075
#        39406
#        52999
#        68164
#        81117
#        92958
#        105278
#        118185
#        130690
#        144907
#        158650
#        170993
#        187456
#        197881
#        212689
#        225602
#        237327
#        250746
#        264308
#
# Disc length: 3734 seconds
#
# Revision: 0
# Processed by: cddbd v1.5.2PL0 Copyright (c) Steve Scherf et al.
# Submitted via: ExactAudioCopyFreeDBPlugin 1.0
#
DISCID=270e9415
DTITLE=Various Artist - Blues
DYEAR=1900
DGENRE=Blues
TTITLE0=Muddy Waters - Got My Mojo Working
TTITLE1=Jimmy Reed - Big boss man
TTITLE2=Guitar Slim - Bad Luck Blues
TTITLE3=Arthur "Big Boy" Crudup - Rock Me Mama
TTITLE4=Big Bill Broonzy - How long blues
TTITLE5=Howlin' Wolf - Forty four
TTITLE6=Little Junior Parker - Sweet home Chicago
TTITLE7=Elmore James - The sky is crying
TTITLE8=Rufus Thomas - Night workin' blues
TTITLE9=Sonny Terry and Brownie McGhee - Mean Old Frisco
TTITLE10=Pee Wee Crayton - Texas hop
TTITLE11=Big Maceo - Big Road Blues
TTITLE12=Bill "Jazz" Gillum - Key to the highway
TTITLE13=Jimmy Witherspoon - When I've Been Drinking
TTITLE14=Messin' with the kid - Unbekannter Künstler
TTITLE15=Johnny Moores Three Blazers ft Charles Brown - Driftin' blues
TTITLE16=Lonnie Johnson - What A Woman
TTITLE17=Percy Mayfield and Joy Hamilton - Sugar mama
TTITLE18=Robert Lockwood Jr. - Take A Little Walk With Me
TTITLE19=Memphis Minnie - Ice Man (Come On Up)
TTITLE20=Tampa Red - Sugar Mama Blues
EXTD=
EXTT0=
EXTT1=
EXTT2=
EXTT3=
EXTT4=
EXTT5=
EXTT6=
EXTT7=
EXTT8=
EXTT9=
EXTT10=
EXTT11=
EXTT12=
EXTT13=
EXTT14=
EXTT15=
EXTT16=
EXTT17=
EXTT18=
EXTT19=
EXTT20=
PLAYORDER=
